<svg xmlns="http://www.w3.org/2000/svg" width="275" height="243"><path fill="#e2e3e4" d="M142 0c12.12 5.98 17.62 18.57 24.35 29.71 2.1 3.4 4.25 6.67 6.59 9.91 2.82 4.04 4.89 7.97 7.06 12.38 1.64 2.59 3.28 5.17 4.95 7.74 2.45 3.89 4.74 7.85 7.05 11.82 2.7 4.64 5.41 9.17 8.56 13.5 3.93 5.41 7.04 11.24 10.23 17.11 2.19 3.8 4.64 7.28 7.21 10.83 1.68 2.99 3.34 5.99 5 9 1.88 3.12 3.79 6.21 5.71 9.3q9.84 15.9 19.41 31.95c5.46 9.11 11.07 18.09 17 26.89 6.47 9.83 10.59 21.01 9.88 32.86-1.53 5.12-3.26 9.13-7 13h-2v2c-11.78 5.69-22.6 5.71-35.49 5.63-2.26.01-4.52.01-6.78.02-6.1.02-12.2.01-18.3-.01-6.4-.02-12.8-.01-19.2 0-10.75 0-21.5-.02-32.25-.04-12.4-.04-24.81-.04-37.21-.02-11.96.02-23.92.01-35.88-.01-5.08 0-10.16 0-15.24.01-5.98 0-11.97-.01-17.95-.04h-6.57c-25.61.08-25.61.08-34.19-7.1-.64-.81-1.28-1.61-1.94-2.44l-3-3c-3.22-8.7-2.33-18.43 1-27 4.1-8.31 8.72-16.34 13.42-24.31 2.27-3.86 4.41-7.78 6.58-11.69 2.03-3.56 4.06-7.11 6.1-10.66 1.47-2.58 2.91-5.18 4.34-7.78 2.99-5.32 6.13-10.54 9.28-15.77 3.83-6.37 7.57-12.79 11.25-19.25 4.91-8.57 10.08-16.99 15.22-25.43l2.27-3.72c1.5-2.47 3.01-4.94 4.51-7.4C79.78 71.73 83.45 65.42 87 59a497 497 0 0 1 4.56-7.31c3.91-6.2 7.7-12.45 11.44-18.75C124.34-2.71 124.34-2.71 142 0"/><path fill="#f7f7f8" d="M139 0c9.94 3.31 17.83 24.88 22.65 33.55.63 1.13 1.26 2.26 1.9 3.42 1.24 2.24 2.48 4.49 3.72 6.74 4.4 7.96 4.4 7.96 7.73 11.29l2-3c5.27 8.22 10.39 16.52 15.44 24.88 4.22 6.98 8.45 13.95 12.73 20.9 3.26 5.28 6.46 10.58 9.64 15.91 3.85 6.44 7.75 12.86 11.69 19.25 4.57 7.45 8.92 15 13.23 22.6 4.47 7.85 9.14 15.56 14 23.18 1.98 3.1 3.94 6.22 5.89 9.34.66 1.02 1.31 2.03 1.98 3.07 1.59 2.55 3.01 5.21 4.4 7.87l-2 4c0 4.99 3.52 8.53 6.25 12.58 1.95 3.81 2.09 6.2 1.75 10.42-3.83-1.53-7.04-3.07-10.58-5.12-1.07-.62-2.14-1.24-3.24-1.88-1.13-.66-2.26-1.32-3.43-2s-2.35-1.36-3.56-2.06c-6.25-3.63-12.48-7.3-18.69-11-8.28-4.9-16.75-9.43-25.24-13.94-2.1-1.12-4.2-2.25-6.29-3.39-1.91-1.04-3.83-2.05-5.77-3.05-6.45-3.51-9.56-7.25-13.2-13.56-.96-1.62-1.91-3.24-2.89-4.91-.97-1.7-1.93-3.4-2.92-5.15-.53-.92-1.05-1.85-1.59-2.8-1.05-1.85-2.1-3.71-3.15-5.57-1.25-2.22-2.51-4.43-3.77-6.65C141 97.86 141 97.86 141 93h-2c-1.62-4.86-1.14-9.92-1.12-15v-3.91c.1-24.7.66-49.4 1.12-74.09"/><path fill="#f5f6f6" d="M138 1v1h-6l.03 3.28c.08 10.23.14 20.45.18 30.68.02 5.25.05 10.51.09 15.76.05 6.05.07 12.1.09 18.15l.06 5.69v5.34l.03 4.68c-.56 5.12-2.2 8.82-4.48 13.42-1.15 2.77-2.3 5.54-3.43 8.31-12.38 30.03-12.38 30.03-19.51 43.94l-1.46 2.91c-7.44 14.1-18.86 23.16-32.54 30.84-2.33 1.33-4.67 2.66-7.01 3.99-1.17.67-2.35 1.34-3.57 2.03-36.3 20.65-36.3 20.65-51.94 31.35C6 224 6 224 4 224c2.05-5.11 4.45-9.97 6.94-14.88 3.79-7.52 7.5-15.07 11.12-22.68.9-1.88 1.8-3.76 2.69-5.64 1.82-3.8 3.63-7.6 5.44-11.41 2.43-5.09 4.87-10.18 7.31-15.27.4-.83.4-.83 2.39-5.04.75-1.55 1.5-3.1 2.27-4.7.66-1.4 1.33-2.79 2.02-4.23C46 137 46 137 49 136l2 1 1-3 3-1 4-4 1 2h-2v3h2c.27-.85.53-1.7.8-2.58 1.23-3.52 2.7-6.77 4.32-10.12l1.88-3.88c.66-1.36 1.32-2.71 2-4.11s1.36-2.8 2.07-4.25C76.18 98.59 81.49 88.26 87 78c1.31-2.48 2.62-4.97 3.93-7.46 9.44-17.88 19.06-35.64 29.32-53.07.25-.44.25-.44 1.56-2.67 1.41-2.39 2.82-4.77 4.24-7.16C128 4 128 4 128 1c3.28-1.64 6.47-.51 10 0"/><path fill="#5e656b" d="M129 2a90 90 0 0 1-5.16 10.83c-.63 1.13-1.26 2.26-1.91 3.43-.33.58-.33.58-1.99 3.55-.63 1.13-1.26 2.26-1.91 3.43-2.73 4.88-5.46 9.76-8.22 14.63-5.39 9.52-10.59 19.13-15.69 28.82-.78 1.48-1.56 2.97-2.37 4.5-1.55 2.95-3.11 5.89-4.66 8.84-1.76 3.35-3.53 6.69-5.31 10.03-5.77 10.9-11.2 21.92-16.47 33.06-1.73 3.65-3.48 7.28-5.31 10.88h-2l1-4-4 4-2 2-1-1-1 2h-5c-.25.82-.5 1.64-.75 2.48-1.46 4.11-3.29 7.91-5.21 11.83-.8 1.62-1.59 3.25-2.41 4.92-.85 1.72-1.7 3.44-2.57 5.21-1.74 3.54-3.47 7.09-5.21 10.63-.84 1.72-1.68 3.43-2.54 5.19-2.83 5.81-5.61 11.65-8.37 17.49-4.71 9.9-9.75 19.6-14.94 29.25.71-.44 1.42-.88 2.15-1.33 5.69-3.51 11.38-7.01 17.08-10.51 3.91-2.39 7.79-4.81 11.66-7.26 1.29-.81 2.59-1.63 3.92-2.46.55-.35.55-.35 3.33-2.13C45 199 45 199 50 200v2l4-2v3c-2.5 2.04-5.11 3.96-7.75 5.81-.8.57-1.59 1.13-2.41 1.71-2.61 1.84-5.22 3.66-7.84 5.48l-5.51 3.86c-3.45 2.42-6.9 4.83-10.36 7.24-2.74 1.92-5.45 3.89-8.13 5.9 41.75.17 41.75.17 253 1-.5.33-.5.33-3 2l-4-1-1 4-1 1h-5v3q-44.475.135-88.95.21-20.655.03-41.31.09c-12 .04-24 .07-36 .08-6.36 0-12.71.01-19.06.04-5.99.03-11.97.04-17.96.03q-3.285 0-6.57.03c-25.6.17-25.6.17-34.21-7.04-.64-.81-1.28-1.61-1.94-2.44l-3-3c-3.22-8.7-2.33-18.43 1-27 4.1-8.31 8.72-16.34 13.42-24.31 2.27-3.86 4.41-7.78 6.58-11.69 2.03-3.56 4.06-7.11 6.1-10.66 1.47-2.58 2.91-5.18 4.34-7.78 2.99-5.32 6.13-10.54 9.28-15.77 3.83-6.37 7.57-12.79 11.25-19.25 4.91-8.57 10.08-16.99 15.22-25.43l2.27-3.72c1.5-2.47 3.01-4.94 4.51-7.4C79.78 71.73 83.45 65.42 87 59a497 497 0 0 1 4.56-7.31c3.91-6.2 7.7-12.45 11.44-18.75C121.52 2 121.52 2 129 2"/><path fill="#040b12" d="M139 1c-.01 1.07-.03 2.14-.04 3.24q-.18 15.27-.27 30.54c-.03 5.23-.07 10.46-.14 15.69-.08 6.03-.11 12.07-.14 18.11l-.09 5.58c0 17.51 5.05 32.89 11.74 48.9.47 1.12.93 2.24 1.41 3.4 3.5 8.33 7.22 16.56 11.09 24.73.5 1.05.99 2.09 1.5 3.18 1.57 3.25 3.24 6.44 4.94 9.63.66 1.32 1.32 2.65 2 4.02 6.41 11.68 13.82 16.3 25.75 21.73 3.34 1.61 6.68 3.23 10.02 4.85 1.6.76 3.2 1.51 4.85 2.3 5.37 2.58 10.55 5.38 15.76 8.29 10.37 5.73 20.9 11.16 31.46 16.56.63.32.63.32 3.86 1.98 1.14.58 2.29 1.16 3.46 1.76C269 227 269 227 272 229l-5 1-4 2c-5.47-2.31-10.48-5.39-15.56-8.44-36.78-21.74-71.32-37.01-113-47.12-1.58-.39-3.16-.77-4.79-1.17-9.19-2.24-18.39-4.33-27.65-6.27 1.77-5.57 4.23-10.53 6.88-15.75 7.46-15.18 12.88-31.19 18.12-47.25.34-.87.68-1.74 1.03-2.64 3.75-10.38 3.57-20.6 3.58-31.54.01-2.02.03-4.04.05-6.06.04-5.28.06-10.56.08-15.84.02-5.4.06-10.8.1-16.21.07-10.57.13-21.14.16-31.71 5.88-1 5.88-1 7-1"/><path fill="#2b3138" d="M10 234h255l-3 2c-.66-.16-.66-.16-4-1l-1 4-1 1h-5v3c-29.7.07-59.4.12-89.11.16-13.79.01-27.58.03-41.37.07-12.02.03-24.04.05-36.06.05-6.37.01-12.73.02-19.1.04-5.99.02-11.98.02-17.98.02-2.19 0-4.39.01-6.59.02-3 .01-6.01.01-9.01 0-.84 0-.84 0-5.1.01-5.02-.4-9.03-1.44-13.68-3.37l-2-3 1-1z"/><path fill="#6a7178" d="M141 1c6.92 1.81 10.76 5.16 14.75 11.07.44.77.44.77 2.69 4.62 3.03 5.11 6.04 10.16 9.5 15 2.63 3.7 4.87 7.34 7.06 11.31 8.67 15.01 17.51 29.96 27.25 44.31 3.08 4.57 5.74 9.24 8.32 14.1 2.22 4.03 4.87 7.77 7.43 11.59 1.67 3 3.34 6 5 9 1.88 3.12 3.79 6.21 5.71 9.3q9.84 15.9 19.41 31.95c5.46 9.11 11.07 18.09 17 26.89 6.47 9.83 10.59 21.01 9.88 32.86-1.53 5.12-3.26 9.13-7 13h-2v2c-2.12.86-4.25 1.72-6.38 2.56-1.18.48-2.36.95-3.58 1.44-3.04 1-3.04 1-5.04 0v-2c.48-.13.48-.13 2.94-.81 1.01-.39 2.02-.79 3.06-1.19l1-3h7v-2h-2v-2l6-3c-1.33-.65-2.67-1.31-4.04-1.98-10.43-5.16-20.73-10.47-30.91-16.11-9.96-5.47-20.08-10.62-30.2-15.77-3.96-2.02-7.91-4.08-11.85-6.14-1.29-.65-2.57-1.31-3.9-1.98-7.52-4-12.02-7.29-16.22-14.96-.48-.85-.96-1.71-1.45-2.59-1.53-2.8-2.99-5.63-4.43-8.47-.25-.49-.25-.49-1.52-2.96-10.44-20.5-19.65-41.75-25.48-64.04h2c.79 1.61 1.58 3.22 2.39 4.88a720 720 0 0 0 21.91 41.15c1.82 3.18 3.6 6.37 5.38 9.58.62 1.1 1.24 2.21 1.87 3.35 1.18 2.12 2.35 4.24 3.52 6.35 1.62 2.91 3.27 5.8 4.93 8.69.28.5.28.5 1.69 3 3.67 6.22 6.75 9.64 13.37 12.94.79.4.79.4 4.78 2.46 1.7.86 3.4 1.72 5.16 2.6 3.74 1.99 7.47 4.03 11.19 6.06.47.26.47.26 2.86 1.56 6.25 3.41 12.38 6.96 18.46 10.67 6.6 3.99 13.27 7.87 19.93 11.77 1.32.78 2.65 1.55 4.01 2.35 3.18 1.87 6.37 3.73 9.55 5.59-1.13-6.21-2.67-10.7-6.19-15.94-1.32-1.98-2.61-4-3.81-6.06 1-2 1-2 3-5-5.87-9.82-11.76-19.63-17.75-29.38-3.89-6.35-7.65-12.76-11.32-19.24-2.68-4.7-5.48-9.34-8.27-13.97-2.01-3.33-4.01-6.67-6-10-7.21-12.05-14.49-24.05-21.86-35.99-5.16-8.35-10.22-16.75-15.25-25.18-2.47-4.11-5-8.18-7.55-12.24l-3 3c-5.29-8.35-10.2-16.86-15-25.5C147.16 9.21 147.16 9.21 141 1"/><path fill="#8d9299" d="M129 2a90 90 0 0 1-5.16 10.83c-.63 1.13-1.26 2.26-1.91 3.43-.33.58-.33.58-1.99 3.55-.63 1.13-1.26 2.26-1.91 3.43-2.73 4.88-5.46 9.76-8.22 14.63-5.39 9.52-10.59 19.13-15.69 28.82-.78 1.48-1.56 2.97-2.37 4.5-1.55 2.95-3.11 5.89-4.66 8.84-1.76 3.35-3.53 6.69-5.31 10.03-5.77 10.9-11.2 21.92-16.47 33.06-1.73 3.65-3.48 7.28-5.31 10.88h-2c.16-.66.16-.66 1-4l-4 4-2 2-1-1c-.16.33-.16.33-1 2h-4c1.51-5.25 3.91-9.65 6.62-14.38.41-.71.41-.71 2.48-4.33.63-1.09 1.25-2.17 1.9-3.29-.83.33-.83.33-5 2 5.19-10.39 11.52-20.22 17.56-30.12 13.39-22 13.39-22 18.44-30.88 5.4-9.19 10.99-18.26 16.62-27.31.63-1 1.25-2.01 1.89-3.04C122.28 2 122.28 2 129 2"/><path fill="#f3f5f6" d="M178.118 228.713c6.81-.01 13.62-.04 20.42-.07 8.16-.04 16.31-.06 24.46-.06 3.06-.01 6.11-.02 9.17-.04 4.22-.02 8.44-.02 12.66-.01.62-.01.62-.01 3.75-.04 6.57.04 11.06.56 16.42 4.51v1h-255v-1l36-1-12-1v-1c48.04-.96 96.08-1.19 144.12-1.29"/><path fill="#9b9ea2" d="M141 1c6.92 1.81 10.76 5.16 14.75 11.07.44.77.44.77 2.69 4.62 3.03 5.11 6.04 10.16 9.5 15 2.63 3.7 4.87 7.34 7.06 11.31 8.67 15.01 17.51 29.96 27.25 44.31 3.08 4.57 5.74 9.24 8.32 14.1 2.22 4.03 4.87 7.77 7.43 11.59 1.67 3 3.34 6 5 9 1.88 3.12 3.79 6.21 5.71 9.3q9.84 15.9 19.41 31.95c5.46 9.11 11.07 18.09 17 26.89 6.58 10 10.26 20.87 9.88 32.86l-1 4-3-1c.09-.99.19-1.99.29-3.01-.36-5.02-2.11-7.61-4.85-11.8-1.53-2.36-3.03-4.75-4.44-7.19 1-2 1-2 3-5-5.87-9.82-11.76-19.63-17.75-29.38-3.89-6.35-7.65-12.76-11.32-19.24-2.68-4.7-5.48-9.34-8.27-13.97-2.01-3.33-4.01-6.67-6-10-7.21-12.05-14.49-24.05-21.86-35.99-5.16-8.35-10.22-16.75-15.25-25.18-2.47-4.11-5-8.18-7.55-12.24l-3 3c-5.29-8.35-10.2-16.86-15-25.5C147.16 9.21 147.16 9.21 141 1"/><path fill="#b7b9be" d="M131 90c1.39 4.17.14 6.31-1.25 10.46-.5 1.52-1 3.03-1.52 4.59-.28.81-.28.81-1.67 4.89-.27.82-.27.82-1.68 4.97-6.39 18.74-13.76 36.52-22.88 54.09h5l1 2h-4l-1 2-4-2c-.97.76-1.94 1.53-2.95 2.32C59.12 202 59.12 202 50 202l-2-2v-3c1.64-.91 3.28-1.81 4.98-2.75C76.73 181.09 93.39 171.78 106 147l2.18-4.27c5.72-11.68 10.57-23.71 15.39-35.79.53-1.33 1.06-2.65 1.61-4.02.24-.6.24-.6 1.43-3.6 1.33-3.19 2.81-6.25 4.39-9.32"/><path fill="#d6d7dc" d="m99 170 4 2 5-2c8.57 1.06 16.88 3.06 25.25 5.12.57.14.57.14 3.45.84L145 178v1c-1.58 0-3.17.01-4.8.01-20.72.27-37.12 5.59-55.59 14.72-3.83 1.89-7.67 3.63-11.61 5.27v-2l-3-1c2.25-2.5 2.25-2.5 5-5h4v-3h2l2-4h4c3.3-3.46 5.53-6.88 8-11z"/><path fill="#8a8f95" d="M129 2c-1.54 3.85-3.12 7.2-5.12 10.8-.62 1.11-1.24 2.23-1.88 3.38-.66 1.18-1.32 2.36-2 3.57-.67 1.2-1.34 2.4-2.04 3.64-1.98 3.54-3.97 7.08-5.96 10.61-.54.97-1.08 1.93-1.63 2.93-1.36 2.42-2.74 4.84-4.12 7.26-.76 1.33-1.52 2.67-2.3 4.04-.64.91-1.29 1.83-1.95 2.77h-3c-.25.97-.5 1.94-.75 2.94-.41 1.01-.83 2.02-1.25 3.06-.66.16-.66.16-4 1l-1 4h-5c4.84-11.81 11.62-22.68 18.6-33.34 1.77-2.7 3.51-5.41 5.24-8.14l2.91-4.58c.88-1.4 1.76-2.79 2.67-4.23C123.16 2 123.16 2 129 2"/><path fill="#6c7278" d="m56 114 3 1c-.81 1.48-1.62 2.95-2.46 4.48-5.6 10.24-11.13 20.51-16.35 30.96-.45.89-.9 1.79-1.36 2.71-3.56 7.17-6.83 14.45-9.98 21.81-.3.5-.3.5-1.85 3.04-.82.16-.82.16-5 1v-3h-3c1.91-3.82 3.88-7.6 5.88-11.38.67-1.28 1.35-2.57 2.05-3.89C29 157 29 157 31.07 153.9c1.92-2.88 3.4-5.8 4.93-8.9 1.4-2.39 2.81-4.76 4.25-7.12 3.48-5.75 6.86-11.53 10.14-17.39C52 118 52 118 56 114"/><path fill="#9ba0a5" d="M165 184c14.07 2.9 27.06 8.31 39.88 14.69.93.46 1.86.92 2.82 1.4 4.47 2.28 8.55 4.56 12.3 7.91-5 1-5 1-7 1v-2h-2l3 5c-.33.16-.33.16-2 1l2 3c-4.62 0-7.25-2.44-11-5-.7-.74-1.41-1.48-2.13-2.25-3.93-3.77-8.39-6.65-12.93-9.63-.94-.61-1.87-1.23-2.83-1.87-6.57-4.32-13.28-8.34-20.11-12.25z"/><path fill="#d0d3d7" d="M37 214c1 4 1 4 0 6 .55-.34.55-.34 3.31-2.06 1.22-.64 2.44-1.28 3.69-1.94l3 1c-4 4-4 4-8 5l-5 3-4 1v1c10.56.16 10.56.16 64 1v1l-48 2 6 1v1H12c4.62-4.62 9.35-8.15 14.75-11.75 9.18-6.18 9.18-6.18 10.25-7.25"/><path fill="#555c62" d="M219 196c11.59 4.63 22.15 11.84 32.88 18.19 1.16.69 2.32 1.38 3.52 2.09 5.91 3.5 11.79 7.05 17.6 10.72-1.04 4.14-2.17 5.91-5 9h-2v2c-2.12.86-4.25 1.72-6.38 2.56-.59.24-.59.24-3.58 1.44-3.04 1-3.04 1-5.04 0v-2c.97-.27 1.94-.54 2.94-.81.5-.2.5-.2 3.06-1.19l1-3h7v-2h-2v-2l6-3c-1.33-.65-2.67-1.31-4.04-1.98-10.98-5.43-21.83-11.03-32.55-16.96-5.08-2.81-10.2-5.5-15.41-8.06z"/><path fill="#868c92" d="M131 90c1.39 4.17.14 6.31-1.25 10.46-.5 1.52-1 3.03-1.52 4.59-.28.81-.28.81-1.67 4.89-.27.82-.27.82-1.67 4.96-3.93 11.53-8.01 22.93-12.89 34.1-.59 1.41-1.19 2.82-1.8 4.27-.58 1.29-1.16 2.59-1.76 3.92-.5 1.1-1 2.21-1.51 3.35-1.93 2.46-1.93 2.46-5.64 3.32-.55.03-.55.03-3.29.14 1.58-5.61 4.31-10.34 7.12-15.44 8.42-15.62 14.72-32.19 21.26-48.66 1.41-3.39 2.93-6.65 4.62-9.9"/><path fill="#bbbec4" d="M139 2c2.63 3.94 2.71 7.13 3.29 11.83.22 1.77.44 3.54.66 5.36.22 1.86.45 3.71.67 5.62.23 1.85.46 3.69.7 5.59C146 44.14 146 44.14 146 51l-2-1c-.54 3.06-1 5.89-1 9-.4 7.55-1.27 14.63-3 22-.37 3-.71 6-1 9h-1c-.22-29.34.43-58.67 1-88"/><path fill="#b0b3b9" d="M73 103c-.33 7.32-3.76 13.08-7.06 19.44-.57 1.11-1.14 2.22-1.72 3.37-1.4 2.73-2.81 5.46-4.22 8.19h-2l1-4-4 4-2 2-1-1-1 2h-4c1.51-5.25 3.91-9.65 6.62-14.38.82-1.43 1.64-2.86 2.48-4.33.63-1.09 1.25-2.17 1.9-3.29l-5 2c2-4 2-4 4-6l1 1h5c3.12-3.38 3.12-3.38 6-7 3-2 3-2 4-2"/><path fill="#d8d9de" d="M141 1c9.1 2.38 13.11 8.18 17.81 16 .48.78.48.78 2.9 4.75C164 26 164 26 165 31c1.58 2.89 3.23 5.74 4.94 8.56 4.95 8.21 4.95 8.21 7.06 12.44l-2 4c-3.37-3.37-5.06-5.54-7.25-9.59-.6-1.11-1.21-2.21-1.83-3.35-.63-1.17-1.27-2.35-1.92-3.56-15.88-29-15.88-29-23-38.5"/><path fill="#ebedef" d="M241 159c3.09 4.12 5.72 8.34 8.39 12.73 2.07 3.39 4.18 6.75 6.32 10.1 1.3 2.08 2.61 4.15 3.91 6.23.66 1.01 1.31 2.03 1.98 3.07 1.59 2.55 3.01 5.2 4.4 7.87l-2 4h-3c-2.28-3.27-2.28-3.27-4.94-7.81-.96-1.63-1.92-3.26-2.92-4.94-.5-.86-1.01-1.72-1.54-2.6-1.62-2.68-3.31-5.31-5.03-7.94-.55-.85-1.11-1.7-1.68-2.58-1.58-2.41-3.16-4.81-4.75-7.22C238 166 238 166 239 162z"/><path fill="#9ea3aa" d="m90 65 4 1c-6.47 13.11-13.21 26.06-20 39h-3c-1.69 1.65-3.35 3.31-5 5h-2l-1 3-3-1 2-3h2v-3h2v-2h3c.29-1.4.58-2.81.88-4.25C71 95 71 95 73 91h2v-3h2v-2h2c.23-1.03.45-2.06.69-3.12 1.43-4.23 3.38-6.57 6.31-9.88v-2h2z"/><path fill="#d3d4d7" d="M19 193h3c.12 7.75.12 7.75-1 10h3l1-2c9.81-3 9.81-3 15-3-3.39 3.39-6.78 5.31-10.94 7.69A336 336 0 0 0 8 219l-1-2a275 275 0 0 1 5.38-11.56c.52-1.08 1.04-2.16 1.57-3.27 3.89-8.01 3.89-8.01 5.05-9.17"/><path fill="#8f949a" d="M186 177c2.03 1.02 3.99 2.15 5.94 3.31 8.86 5.21 17.95 9.95 27.06 14.69-.16.82-.16.82-1 5-13.42-3.95-26.09-11.79-38-19 4-3 4-3 6-4"/><path fill="#e2e5e8" d="M39 193h11c-2.09 5.11-4 7.04-8.88 9.56-6.52 3.52-12.83 7.27-19.12 11.19-.9.56-1.79 1.11-2.71 1.68-3.64 2.26-7.25 4.54-10.79 6.96C6 224 6 224 4 224c2.51-6.29 5.03-7.33 10.75-10.81.85-.52 1.69-1.04 2.57-1.58 7.14-4.36 14.37-8.55 21.68-12.61z"/><path fill="#b4b7bb" d="M131 3h1c.08 9.91.13 19.83.16 29.74.02 3.38.04 6.75.07 10.13q.045 7.26.06 14.52c.02 1.52.03 3.04.05 4.6v4.24c.01 1.24.01 2.48.02 3.75C132 73 132 73 129 76c-.05-6.54-.09-13.08-.11-19.62-.01-2.21-.02-4.42-.04-6.63-.12-15.7.59-31.13 2.15-46.75"/><path fill="#8d9399" d="M187 191c7.68 2.92 14.87 6.39 22.12 10.25 1.06.55 2.11 1.11 3.19 1.68 2.57 1.35 5.13 2.71 7.69 4.07l-1 2h-6v-2h-2l3 5-4-1-1-2-5-2-3-3v-2l-3 1-4-4c-.87-.66-1.73-1.32-2.62-2-2.38-2-2.38-2-4.38-6"/><path fill="#7d8287" d="m56 114 3 1c-.88 1.62-1.76 3.23-2.67 4.9-1.17 2.16-2.34 4.32-3.52 6.48l-1.75 3.21C47.58 136 44.22 142.45 41 149l-6-1c2.78-5.57 5.8-10.99 8.81-16.44.62-1.13 1.24-2.26 1.87-3.43.61-1.09 1.21-2.19 1.84-3.31.55-1 1.09-2 1.66-3.02 1.97-3.02 4.19-5.34 6.82-7.8"/><path fill="#bcbec4" d="M97 163h7l-2 6h5l1 2h-4l-1 2-4-2-17 13-2-1v-2l-2-1c1.48-.99 2.97-1.98 4.5-3 5.28-3.69 11.56-8.12 14.5-14m-21 18c.33.16.33.16 2 1-.33.16-.33.16-2 1z"/><path fill="#797f86" d="M179 163c1.82 2.62 1.82 2.62 3.69 5.88.62 1.06 1.24 2.13 1.88 3.24C186 175 186 175 186 178l-7 3c-1.53-2.26-3.05-4.54-4.56-6.81-.43-.63-.43-.63-2.57-3.83-.31-.56-.31-.56-1.87-3.36l1-3c5-2 5-2 8-1"/><path fill="#7f848b" d="M50 200v2l4-2v3c-2.41 2.23-2.41 2.23-5.62 4.62-1.05.8-2.09 1.6-3.17 2.42-3.26 1.99-5.42 2.73-9.21 2.96l-2-1v-2l-2-1c1.34-4.01 3.15-4.62 6.75-6.75 1.05-.63 2.09-1.27 3.17-1.92C45 199 45 199 50 200"/><path fill="#afb2b7" d="M110 170c5.27 1.11 10.54 2.24 15.81 3.38.75.15.75.15 4.55.96 1.44.31 2.87.61 4.35.93 1.32.29 2.65.57 4.01.86C142 177 142 177 145 179l-5.26.18c-2.29.09-4.58.17-6.86.26l-3.47.12-3.36.12c-1.01.04-2.03.08-3.07.11-3.05.21-5.98.66-8.98 1.21l2-1-1-4-3-1v-2h-2l-1 2z"/><path fill="#646b72" d="M32 207c.76.8 1.53 1.61 2.31 2.44C37 212 37 212 40 213l-11 8-1-2-5 4-3-2v-7c2.62-1.92 2.62-1.92 6-3.75 1.11-.61 2.23-1.23 3.38-1.86.86-.46 1.73-.92 2.62-1.39"/><path fill="#696f76" d="M219 196c4.27 1.71 7.92 3.58 11.88 5.88 1.17.67 2.34 1.35 3.55 2.05 1.18.68 2.36 1.37 3.57 2.07 2.33 1.33 4.67 2.67 7 4v3h2l1 3c-4.27-1.32-8.1-2.96-12.05-5.04-1.11-.58-2.22-1.16-3.36-1.76-1.15-.6-2.29-1.2-3.47-1.82-1.16-.62-2.33-1.23-3.53-1.86-2.86-1.5-5.73-3.01-8.59-4.52z"/><path fill="#b8b9bd" d="m29 224 2 1-1 2c10.56.16 10.56.16 64 1v1c-16.85.84-33.63 1.13-50.5 1.06-2.3 0-4.6-.01-6.9-.01-5.53-.01-11.07-.03-16.6-.05 2.97-2.47 5.51-4.26 9-6"/><path fill="#c1c4c9" d="m64 116 4 2-8 16h-2l1-4-4 4-2 2-1-1-1 2h-4l2-5h2l1-3 4-3 3-5c1.63-1.7 3.29-3.38 5-5"/><path fill="#e6e8ea" d="M260 208c3.43 3.25 5.52 5.86 8 10v2c-.33.16-.33.16-2 1l-1 2-19-11 1-3c6.75.88 6.75.88 9 2l3-1z"/><path fill="#ced2d7" d="M252 180c4.83 1.61 6.19 5.58 8.81 9.81 1.02 1.62 2.04 3.23 3.08 4.9L266 199l-2 4h-3c-2.73-3.8-2.73-3.8-5.75-8.75-.5-.81-.5-.81-3.05-4.92C250 185 250 185 251 181z"/><path fill="#4e5459" d="M2 224c.83.33.83.33 5 2l4 1 2-2h2v2l5-1c-3.37 3.66-5.22 5.09-10 7v2l3 1-1 3c-3.92-1.96-6.03-3.86-9-7l-1-1c-.04-2.33-.04-4.67 0-7"/><path fill="#a2a4a9" d="M141 1c8.44 2.21 12.6 7.3 16.94 14.62.39.66.39.66 2.4 3.98C162 23 162 23 161 26c-.6-.99-1.2-1.98-1.81-3-.72-.99-1.45-1.98-2.19-3h-3c-4.2-4.34-6.93-9.84-10-15z"/><path fill="#bbbdc1" d="M25 205v3c-2.76 2-5.61 3.88-8.5 5.69-.79.49-.79.49-4.78 3.01-.61.38-.61.38-3.72 2.3l-1-2c1.14-2.79 1.14-2.79 2.81-6.06.55-1.09 1.09-2.17 1.65-3.29 3.21-5.52 7.82-3.31 13.54-2.65"/><path fill="#e3e4e7" d="M130 0c2.68.24 5.35.57 8 1v1l-6 1-1 10-2-1c-.08 1.26-.16 2.52-.25 3.81C128 20 128 20 124 23l-4-1c.62-1.18 1.24-2.35 1.88-3.56 1.84-3.85 3.04-7.34 4.12-11.44 2-5 2-5 4-7"/><path fill="#f1f2f5" d="M137.563 178.688c1.73-.02 3.47-.03 5.25-.05 5.28.37 9.35 1.22 14.19 3.36l1 4c-1.64-.27-3.28-.55-4.97-.84-2.18-.36-4.36-.73-6.53-1.09-1.08-.19-2.16-.37-3.27-.56-5.73-.96-11.45-1.84-17.23-2.51 3.28-3.28 7.05-2.3 11.56-2.31"/><path fill="#e9ebee" d="M139 0c5.69 1.9 8.19 8.47 10.88 13.56.18.4.18.4 1.12 2.44h-6l-1 2c-2.77-4.61-3.52-6.7-4.19-11.81-.16-1.16-.31-2.33-.48-3.52-.11-.88-.22-1.76-.33-2.67"/><path fill="#3c4146" d="m271 230-2 5-3 1v2c-2.12.86-4.25 1.72-6.38 2.56-.59.24-.59.24-3.58 1.44-3.04 1-3.04 1-5.04 0v-2c.97-.27 1.94-.54 2.94-.81 1.01-.39 2.02-.79 3.06-1.19l1-3h7v-2h-2v-2c3-2 3-2 8-1"/><path fill="#9a9da2" d="M131 90c1.29 3.86.44 5.37-.87 9.2l-1.24 3.66c-.44 1.26-.88 2.53-1.33 3.83-.43 1.27-.87 2.55-1.31 3.86-1.08 3.15-2.16 6.3-3.25 9.45h-2c-1.14-4.56-.67-5.61 1.05-9.82.23-.56.23-.56 1.37-3.37.48-1.15.96-2.31 1.46-3.5.47-1.16.94-2.33 1.43-3.53 3.52-8.61 3.52-8.61 4.69-9.78"/><path fill="#85898f" d="M139 93h2c1.73 3.24 3.43 6.49 5.12 9.75.5.92.99 1.84 1.5 2.79 1.25 2.43 2.33 4.94 3.38 7.46l-2 4h-2c-1.15-3.06-2.3-6.12-3.44-9.19-.64-1.7-1.27-3.41-1.93-5.17C140 98 140 98 139 93"/><path fill="#888d92" d="m56 114 3 1-9 16h-5c5.97-12.85 5.97-12.85 11-17"/><path fill="#9da2a9" d="m59 194 2 4c-4.08 2.9-6.05 4-11 4l-2-2v-3c6.5-4.12 6.5-4.12 11-3m0-1 2 1Z"/><path fill="#dedfe4" d="M26.438 229.813c8.59.05 17.05 1.12 25.56 2.19v1c-4.77.06-9.54.09-14.31.12-.68.01-.68.01-4.12.05-1.29.01-2.59.02-3.93.02-.6.01-.6.01-3.63.03-3.01-.22-3.01-.22-6.01-2.22 1-1 1-1 6.44-1.19"/><path fill="#a5a7ac" d="M140 9c4.01 8.02 4.36 18.13 4 27l-1-3-3 1z"/><path fill="#f7f7f8" d="M71 200c2 1 2 1 3 3-.93.39-1.86.77-2.82 1.17-6.29 2.65-12.26 5.41-18.18 8.83h-3c1.42-4.26 4.26-4.94 8.1-6.87.94-.45 1.87-.91 2.84-1.38.46-.24.46-.24 2.82-1.43 2.38-1.18 4.81-2.26 7.24-3.32"/></svg>